<svg width="292" height="33" viewBox="0 0 292 33" fill="none" xmlns="http://www.w3.org/2000/svg">
<path fill-rule="evenodd" clip-rule="evenodd" d="M33.8229 0V8.24448L20.3618 16.489L6.89136 8.24448V0H33.8229Z" fill="#C8C8C8"/>
<path d="M38.1118 0V10.8682L20.0621 21.7364L2 10.8682V0" stroke="#C8C8C8" stroke-width="3" stroke-miterlimit="1.5"/>
<path fill-rule="evenodd" clip-rule="evenodd" d="M51.5898 33V24.7555L38.1286 16.511L24.6582 24.7555V33H51.5898Z" fill="#C8C8C8"/>
<path d="M56.167 33V21.9452L38.1173 10.8903L20.0552 21.9452V33" stroke="#C8C8C8" stroke-width="3" stroke-miterlimit="1.5"/>
<path fill-rule="evenodd" clip-rule="evenodd" d="M69.933 0V8.24448L56.4719 16.489L43.0015 8.24448V0H69.933Z" fill="#C8C8C8"/>
<path d="M74.2222 0V10.8682L56.1725 21.7364L38.1104 10.8682V0" stroke="#C8C8C8" stroke-width="3" stroke-miterlimit="1.5"/>
<path fill-rule="evenodd" clip-rule="evenodd" d="M87.7006 33V24.7555L74.2395 16.511L60.769 24.7555V33H87.7006Z" fill="#C8C8C8"/>
<path d="M92.2766 33V21.9452L74.2269 10.8903L56.1648 21.9452V33" stroke="#C8C8C8" stroke-width="3" stroke-miterlimit="1.5"/>
<path fill-rule="evenodd" clip-rule="evenodd" d="M105.971 0V8.24448L92.5097 16.489L79.0393 8.24448V0H105.971Z" fill="#C8C8C8"/>
<path d="M110.26 0V10.8682L92.2103 21.7364L74.1482 10.8682V0" stroke="#C8C8C8" stroke-width="3" stroke-miterlimit="1.5"/>
<path fill-rule="evenodd" clip-rule="evenodd" d="M123.738 33V24.7555L110.277 16.511L96.8062 24.7555V33H123.738Z" fill="#C8C8C8"/>
<path d="M128.314 33V21.9452L110.265 10.8903L92.2026 21.9452V33" stroke="#C8C8C8" stroke-width="3" stroke-miterlimit="1.5"/>
<path fill-rule="evenodd" clip-rule="evenodd" d="M142.081 0V8.24448L128.62 16.489L115.15 8.24448V0H142.081Z" fill="#C8C8C8"/>
<path d="M146.37 0V10.8682L128.32 21.7364L110.258 10.8682V0" stroke="#C8C8C8" stroke-width="3" stroke-miterlimit="1.5"/>
<path fill-rule="evenodd" clip-rule="evenodd" d="M159.848 33V24.7555L146.387 16.511L132.917 24.7555V33H159.848Z" fill="#C8C8C8"/>
<path d="M164.425 33V21.9452L146.375 10.8903L128.313 21.9452V33" stroke="#C8C8C8" stroke-width="3" stroke-miterlimit="1.5"/>
<path fill-rule="evenodd" clip-rule="evenodd" d="M177.897 0V8.24448L164.436 16.489L150.966 8.24448V0H177.897Z" fill="#C8C8C8"/>
<path d="M182.186 0V10.8682L164.136 21.7364L146.074 10.8682V0" stroke="#C8C8C8" stroke-width="3" stroke-miterlimit="1.5"/>
<path fill-rule="evenodd" clip-rule="evenodd" d="M195.664 33V24.7555L182.203 16.511L168.732 24.7555V33H195.664Z" fill="#C8C8C8"/>
<path d="M200.241 33V21.9452L182.191 10.8903L164.129 21.9452V33" stroke="#C8C8C8" stroke-width="3" stroke-miterlimit="1.5"/>
<path fill-rule="evenodd" clip-rule="evenodd" d="M214.007 0V8.24448L200.546 16.489L187.075 8.24448V0H214.007Z" fill="#C8C8C8"/>
<path d="M218.296 0V10.8682L200.246 21.7364L182.184 10.8682V0" stroke="#C8C8C8" stroke-width="3" stroke-miterlimit="1.5"/>
<path fill-rule="evenodd" clip-rule="evenodd" d="M231.774 33V24.7555L218.313 16.511L204.843 24.7555V33H231.774Z" fill="#C8C8C8"/>
<path d="M236.35 33V21.9452L218.301 10.8903L200.239 21.9452V33" stroke="#C8C8C8" stroke-width="3" stroke-miterlimit="1.5"/>
<path fill-rule="evenodd" clip-rule="evenodd" d="M250.045 0V8.24448L236.584 16.489L223.113 8.24448V0H250.045Z" fill="#C8C8C8"/>
<path d="M254.334 0V10.8682L236.284 21.7364L218.222 10.8682V0" stroke="#C8C8C8" stroke-width="3" stroke-miterlimit="1.5"/>
<path fill-rule="evenodd" clip-rule="evenodd" d="M267.812 33V24.7555L254.351 16.511L240.88 24.7555V33H267.812Z" fill="#C8C8C8"/>
<path d="M272.388 33V21.9452L254.338 10.8903L236.276 21.9452V33" stroke="#C8C8C8" stroke-width="3" stroke-miterlimit="1.5"/>
<path fill-rule="evenodd" clip-rule="evenodd" d="M286.155 0V8.24448L272.694 16.489L259.223 8.24448V0H286.155Z" fill="#C8C8C8"/>
<path d="M290.443 0V10.8682L272.393 21.7364L254.331 10.8682V0" stroke="#C8C8C8" stroke-width="3" stroke-miterlimit="1.5"/>
<path fill-rule="evenodd" clip-rule="evenodd" d="M291 33V24.7555V16.0815L276.99 24.7555V33H291Z" fill="#C8C8C8"/>
<path d="M290.448 10.8903L272.386 21.9452V33" stroke="#C8C8C8" stroke-width="3" stroke-miterlimit="1.5"/>
</svg>
